<svg version="1.1" viewBox="0.0 0.0 250.0 250.0" fill="none" stroke="none" stroke-linecap="square" stroke-miterlimit="10" xmlns:xlink="http://www.w3.org/1999/xlink" xmlns="http://www.w3.org/2000/svg"><clipPath id="g35546c1331b_0_0.0"><path d="m0 0l960.0 0l0 540.0l-960.0 0l0 -540.0z" clip-rule="nonzero"/></clipPath><g clip-path="url(#g35546c1331b_0_0.0)"><path fill="#ffffff" d="m0 0l960.0 0l0 540.0l-960.0 0z" fill-rule="evenodd"/><path fill="#cfe2f3" d="m-2.0209973 0l252.47244 0l0 117.58483l-23.517532 23.517525l-228.95491 0z" fill-rule="evenodd"/><path fill="#a5b4c2" d="m226.93391 141.10236l4.7035065 -18.814018l18.814026 -4.7035065z" fill-rule="evenodd"/><path fill="#000000" fill-opacity="0.0" d="m226.93391 141.10236l4.7035065 -18.814018l18.814026 -4.7035065l-23.517532 23.517525l-228.95491 0l0 -141.10236l252.47244 0l0 117.58483" fill-rule="evenodd"/><path stroke="#595959" stroke-width="1.0" stroke-linejoin="round" stroke-linecap="butt" d="m226.93391 141.10236l4.7035065 -18.814018l18.814026 -4.7035065l-23.517532 23.517525l-228.95491 0l0 -141.10236l252.47244 0l0 117.58483" fill-rule="evenodd"/><path fill="#000000" d="m88.56001 15.870625l-0.90625 13.609375l-2.40625 0l-1.6875 -4.84375l-0.46875 -1.546875l-0.484375 1.671875l-1.5625 4.71875l-2.328125 0l-0.9375 -13.609375l1.75 0l0.53125 9.25l0.15625 2.546875l0.65625 -2.15625l1.640625 -5.046875l1.28125 0l1.90625 5.40625l0.625 1.796875l0.046875 -1.875l0.546875 -9.921875l1.640625 0zm10.710678 9.46875q0 0.90625 -0.359375 1.6875q-0.359375 0.78125 -1.09375 1.375q-0.734375 0.59375 -1.84375 0.9375q-1.09375 0.328125 -2.5625 0.328125q-0.8125 0 -1.46875 -0.0625q-0.640625 -0.046875 -1.203125 -0.125l0 -1.625q0.65625 0.109375 1.375 0.171875q0.71875 0.0625 1.46875 0.0625q1.015625 0 1.734375 -0.171875q0.734375 -0.1875 1.1875 -0.53125q0.453125 -0.34375 0.65625 -0.828125q0.21875 -0.5 0.21875 -1.109375q0 -0.5625 -0.25 -0.96875q-0.25 -0.421875 -0.703125 -0.703125q-0.453125 -0.28125 -1.09375 -0.421875q-0.625 -0.140625 -1.375 -0.140625l-1.546875 0l0 -1.5l1.578125 0q0.609375 0 1.109375 -0.15625q0.515625 -0.15625 0.875 -0.453125q0.359375 -0.3125 0.546875 -0.75q0.1875 -0.453125 0.1875 -1.015625q0 -1.078125 -0.671875 -1.578125q-0.65625 -0.5 -1.953125 -0.5q-0.6875 0 -1.421875 0.140625q-0.71875 0.125 -1.546875 0.390625l0 -1.578125q0.34375 -0.125 0.75 -0.21875q0.40625 -0.109375 0.796875 -0.171875q0.40625 -0.0625 0.796875 -0.09375q0.40625 -0.046875 0.765625 -0.046875q1.078125 0 1.90625 0.234375q0.828125 0.234375 1.375 0.671875q0.546875 0.4375 0.828125 1.0625q0.28125 0.625 0.28125 1.40625q0 1.15625 -0.59375 1.953125q-0.59375 0.796875 -1.640625 1.265625q0.53125 0.078125 1.046875 0.328125q0.515625 0.25 0.921875 0.640625q0.421875 0.390625 0.671875 0.921875q0.25 0.53125 0.25 1.171875zm11.851303 3.625q-1.625 0.6875 -3.421875 0.6875q-2.890625 0 -4.4375 -1.71875q-1.546875 -1.734375 -1.546875 -5.109375q0 -1.640625 0.421875 -2.953125q0.4375 -1.328125 1.21875 -2.25q0.796875 -0.921875 1.921875 -1.421875q1.125 -0.5 2.53125 -0.5q0.9375 0 1.75 0.171875q0.8125 0.15625 1.5625 0.484375l0 1.828125q-0.734375 -0.40625 -1.53125 -0.609375q-0.78125 -0.21875 -1.71875 -0.21875q-0.96875 0 -1.75 0.359375q-0.765625 0.359375 -1.3125 1.046875q-0.53125 0.671875 -0.828125 1.65625q-0.296875 0.984375 -0.296875 2.234375q0 2.65625 1.078125 4.0q1.078125 1.34375 3.140625 1.34375q0.875 0 1.671875 -0.203125q0.8125 -0.203125 1.546875 -0.578125l0 1.75zm24.061981 -6.4375q0 0.96875 -0.15625 1.875q-0.140625 0.890625 -0.484375 1.671875q-0.328125 0.765625 -0.859375 1.390625q-0.53125 0.625 -1.3125 1.078125q-0.765625 0.453125 -1.78125 0.703125q-1.015625 0.234375 -2.328125 0.234375l-2.90625 0l0 -13.609375l3.5 0q3.1875 0 4.75 1.640625q1.578125 1.640625 1.578125 5.015625zm-1.953125 0.125q0 -1.4375 -0.265625 -2.4375q-0.265625 -1.0 -0.828125 -1.609375q-0.546875 -0.625 -1.390625 -0.890625q-0.828125 -0.28125 -1.953125 -0.28125l-1.59375 0l0 10.4375l1.390625 0q4.640625 0 4.640625 -5.21875zm13.070053 6.3125q-1.625 0.6875 -3.421875 0.6875q-2.890625 0 -4.4375 -1.71875q-1.546875 -1.734375 -1.546875 -5.109375q0 -1.640625 0.421875 -2.953125q0.4375 -1.328125 1.21875 -2.25q0.796875 -0.921875 1.921875 -1.421875q1.125 -0.5 2.53125 -0.5q0.9375 0 1.75 0.171875q0.8125 0.15625 1.5625 0.484375l0 1.828125q-0.734375 -0.40625 -1.53125 -0.609375q-0.78125 -0.21875 -1.71875 -0.21875q-0.96875 0 -1.75 0.359375q-0.765625 0.359375 -1.3125 1.046875q-0.53125 0.671875 -0.828125 1.65625q-0.296875 0.984375 -0.296875 2.234375q0 2.65625 1.078125 4.0q1.078125 1.34375 3.140625 1.34375q0.875 0 1.671875 -0.203125q0.8125 -0.203125 1.546875 -0.578125l0 1.75zm12.991928 0.515625l-2.015625 0l-0.953125 -2.96875l-5.671875 0l-0.953125 2.96875l-1.921875 0l4.515625 -13.609375l2.546875 0l4.453125 13.609375zm-3.5 -4.625l-2.296875 -7.28125l-2.3125 7.28125l4.609375 0zm14.429428 -7.40625l-4.03125 0l0 12.03125l-1.875 0l0 -12.03125l-4.03125 0l0 -1.578125l9.9375 0l0 1.578125z" fill-rule="nonzero"/><path fill="#fce5cd" d="m82.50656 167.32283l75.81102 0l0 63.1756l-12.635422 12.635437l-63.1756 0z" fill-rule="evenodd"/><path fill="#c9b7a3" d="m145.68216 243.13387l2.5270844 -10.108353l10.108337 -2.5270844z" fill-rule="evenodd"/><path fill="#000000" fill-opacity="0.0" d="m145.68216 243.13387l2.5270844 -10.108353l10.108337 -2.5270844l-12.635422 12.635437l-63.1756 0l0 -75.811035l75.81102 0l0 63.1756" fill-rule="evenodd"/><path stroke="#595959" stroke-width="1.0" stroke-linejoin="round" stroke-linecap="butt" d="m145.68216 243.13387l2.5270844 -10.108353l10.108337 -2.5270844l-12.635422 12.635437l-63.1756 0l0 -75.811035l75.81102 0l0 63.1756" fill-rule="evenodd"/><path fill="#000000" d="m99.74006 199.20938q0 0.671875 -0.109375 1.296875q-0.09375 0.609375 -0.328125 1.140625q-0.21875 0.53125 -0.59375 0.96875q-0.359375 0.421875 -0.890625 0.734375q-0.53125 0.296875 -1.234375 0.46875q-0.703125 0.171875 -1.59375 0.171875l-2.0 0l0 -9.359375l2.40625 0q2.1875 0 3.265625 1.140625q1.078125 1.125 1.078125 3.4375zm-1.328125 0.09375q0 -1.0 -0.1875 -1.6875q-0.1875 -0.6875 -0.578125 -1.109375q-0.375 -0.421875 -0.953125 -0.609375q-0.5625 -0.1875 -1.328125 -0.1875l-1.109375 0l0 7.171875l0.953125 0q3.203125 0 3.203125 -3.578125zm8.97995 4.34375q-1.125 0.453125 -2.359375 0.453125q-1.984375 0 -3.046875 -1.171875q-1.0625 -1.1875 -1.0625 -3.515625q0 -1.125 0.296875 -2.03125q0.296875 -0.90625 0.828125 -1.53125q0.546875 -0.640625 1.3125 -0.984375q0.78125 -0.34375 1.75 -0.34375q0.640625 0 1.203125 0.109375q0.5625 0.109375 1.078125 0.34375l0 1.25q-0.515625 -0.28125 -1.0625 -0.421875q-0.53125 -0.15625 -1.1875 -0.15625q-0.65625 0 -1.1875 0.25q-0.53125 0.25 -0.90625 0.71875q-0.375 0.46875 -0.578125 1.15625q-0.1875 0.671875 -0.1875 1.53125q0 1.8125 0.734375 2.75q0.734375 0.921875 2.15625 0.921875q0.609375 0 1.15625 -0.140625q0.546875 -0.140625 1.0625 -0.390625l0 1.203125zm8.91745 0.34375l-1.390625 0l-0.640625 -2.046875l-3.90625 0l-0.65625 2.046875l-1.3125 0l3.09375 -9.359375l1.75 0l3.0625 9.359375zm-2.40625 -3.171875l-1.578125 -5.015625l-1.578125 5.015625l3.15625 0zm9.91745 -5.09375l-2.765625 0l0 8.265625l-1.28125 0l0 -8.265625l-2.78125 0l0 -1.09375l6.828125 0l0 1.09375zm6.7924576 4.953125l-4.2812576 0l0 -1.171875l4.2812576 0l0 1.171875zm9.870575 3.3125l-1.390625 0l-0.640625 -2.046875l-3.90625 0l-0.65625 2.046875l-1.3125 0l3.09375 -9.359375l1.75 0l3.0625 9.359375zm-2.40625 -3.171875l-1.578125 -5.015625l-1.578125 5.015625l3.15625 0zm9.745575 -3.3125q0 0.5625 -0.21875 1.125q-0.203125 0.5625 -0.65625 1.015625q-0.453125 0.4375 -1.15625 0.71875q-0.703125 0.265625 -1.671875 0.265625l-1.15625 0l0 3.359375l-1.28125 0l0 -9.359375l2.640625 0q0.6875 0 1.328125 0.15625q0.640625 0.15625 1.125 0.5q0.484375 0.34375 0.765625 0.890625q0.28125 0.546875 0.28125 1.328125zm-1.3125 0.046875q0 -0.890625 -0.59375 -1.375q-0.59375 -0.484375 -1.65625 -0.484375l-1.296875 0l0 3.859375l1.1875 0q1.125 0 1.734375 -0.5q0.625 -0.5 0.625 -1.5z" fill-rule="nonzero"/><path fill="#000000" fill-opacity="0.0" d="m120.41207 133.01837l0 34.29921" fill-rule="evenodd"/><path stroke="#595959" stroke-width="1.0" stroke-linejoin="round" stroke-linecap="butt" d="m120.41207 133.01837l0 28.29921" fill-rule="evenodd"/><path fill="#595959" stroke="#595959" stroke-width="1.0" stroke-linecap="butt" d="m118.76034 161.31758l1.6517334 4.538101l1.6517334 -4.538101z" fill-rule="evenodd"/><path fill="#cfe2f3" d="m19.54593 36.711285l201.73228 0l0 27.21774l-5.44368 5.44368l-196.2886 0z" fill-rule="evenodd"/><path fill="#a5b4c2" d="m215.83453 69.3727l1.0887451 -4.3549423l4.3549347 -1.0887375z" fill-rule="evenodd"/><path fill="#000000" fill-opacity="0.0" d="m215.83453 69.3727l1.0887451 -4.3549423l4.3549347 -1.0887375l-5.44368 5.44368l-196.2886 0l0 -32.66142l201.73228 0l0 27.21774" fill-rule="evenodd"/><path stroke="#595959" stroke-width="1.0" stroke-linejoin="round" stroke-linecap="butt" d="m215.83453 69.3727l1.0887451 -4.3549423l4.3549347 -1.0887375l-5.44368 5.44368l-196.2886 0l0 -32.66142l201.73228 0l0 27.21774" fill-rule="evenodd"/><path fill="#000000" d="m81.955025 52.482536q0 0.484375 -0.078125 0.9375q-0.078125 0.4375 -0.25 0.828125q-0.15625 0.375 -0.421875 0.703125q-0.265625 0.3125 -0.65625 0.53125q-0.390625 0.21875 -0.90625 0.34375q-0.5 0.125 -1.140625 0.125l-1.46875 0l0 -6.796875l1.765625 0q1.578125 0 2.359375 0.828125q0.796875 0.8125 0.796875 2.5zm-0.984375 0.0625q0 -0.71875 -0.140625 -1.21875q-0.125 -0.5 -0.40625 -0.8125q-0.265625 -0.3125 -0.6875 -0.4375q-0.421875 -0.140625 -0.96875 -0.140625l-0.796875 0l0 5.21875l0.6875 0q2.3125 0 2.3125 -2.609375zm6.530731 3.15625q-0.8125 0.328125 -1.703125 0.328125q-1.4375 0 -2.21875 -0.859375q-0.765625 -0.859375 -0.765625 -2.546875q0 -0.8125 0.203125 -1.46875q0.21875 -0.671875 0.609375 -1.125q0.40625 -0.46875 0.953125 -0.71875q0.5625 -0.25 1.265625 -0.25q0.46875 0 0.875 0.09375q0.40625 0.078125 0.78125 0.234375l0 0.921875q-0.359375 -0.203125 -0.765625 -0.3125q-0.390625 -0.109375 -0.859375 -0.109375q-0.484375 0 -0.875 0.1875q-0.375 0.171875 -0.65625 0.515625q-0.265625 0.34375 -0.40625 0.84375q-0.140625 0.484375 -0.140625 1.109375q0 1.3125 0.53125 1.984375q0.53125 0.671875 1.5625 0.671875q0.4375 0 0.84375 -0.09375q0.40625 -0.109375 0.765625 -0.28125l0 0.875zm6.499481 0.25l-1.015625 0l-0.46875 -1.484375l-2.828125 0l-0.484375 1.484375l-0.96875 0l2.265625 -6.796875l1.265625 0l2.234375 6.796875zm-1.75 -2.3125l-1.15625 -3.640625l-1.140625 3.640625l2.296875 0zm7.202606 -3.703125l-2.015625 0l0 6.015625l-0.921875 0l0 -6.015625l-2.015625 0l0 -0.78125l4.953125 0l0 0.78125zm12.155212 -0.78125l-2.3125 6.796875l-1.25 0l-2.265625 -6.796875l1.046875 0l1.46875 4.578125l0.421875 1.34375l0.421875 -1.34375l1.46875 -4.578125l1.0 0zm5.390106 4.140625q0 0.609375 -0.171875 1.125q-0.171875 0.5 -0.5 0.859375q-0.3125 0.359375 -0.78125 0.5625q-0.453125 0.203125 -1.046875 0.203125q-0.5625 0 -1.015625 -0.171875q-0.4375 -0.171875 -0.75 -0.515625q-0.296875 -0.34375 -0.46875 -0.84375q-0.15625 -0.5 -0.15625 -1.140625q0 -0.609375 0.171875 -1.109375q0.171875 -0.5 0.484375 -0.859375q0.328125 -0.375 0.78125 -0.5625q0.46875 -0.203125 1.0625 -0.203125q0.5625 0 1.0 0.171875q0.453125 0.171875 0.75 0.515625q0.3125 0.328125 0.46875 0.828125q0.171875 0.5 0.171875 1.140625zm-0.921875 0.046875q0 -0.484375 -0.109375 -0.84375q-0.109375 -0.359375 -0.3125 -0.59375q-0.1875 -0.25 -0.46875 -0.375q-0.28125 -0.125 -0.640625 -0.125q-0.390625 0 -0.6875 0.15625q-0.28125 0.15625 -0.46875 0.421875q-0.1875 0.265625 -0.28125 0.625q-0.078125 0.34375 -0.078125 0.734375q0 0.484375 0.109375 0.84375q0.109375 0.359375 0.296875 0.609375q0.203125 0.234375 0.484375 0.359375q0.28125 0.125 0.625 0.125q0.40625 0 0.6875 -0.15625q0.296875 -0.15625 0.484375 -0.421875q0.1875 -0.265625 0.265625 -0.609375q0.09375 -0.359375 0.09375 -0.75zm6.296356 2.421875q-0.359375 0.125 -0.734375 0.1875q-0.359375 0.078125 -0.765625 0.078125q-1.234375 0 -1.90625 -0.671875q-0.65625 -0.671875 -0.65625 -1.96875q0 -0.609375 0.1875 -1.109375q0.1875 -0.515625 0.53125 -0.875q0.359375 -0.359375 0.84375 -0.546875q0.484375 -0.203125 1.0625 -0.203125q0.40625 0 0.75 0.0625q0.359375 0.046875 0.6875 0.1875l0 0.859375q-0.34375 -0.171875 -0.703125 -0.25q-0.34375 -0.09375 -0.71875 -0.09375q-0.34375 0 -0.65625 0.140625q-0.296875 0.125 -0.53125 0.375q-0.234375 0.25 -0.375 0.609375q-0.140625 0.359375 -0.140625 0.8125q0 0.953125 0.453125 1.421875q0.46875 0.46875 1.28125 0.46875q0.375 0 0.71875 -0.078125q0.34375 -0.09375 0.671875 -0.25l0 0.84375zm5.155731 0.1875l-0.015625 -0.703125q-0.4375 0.421875 -0.875 0.609375q-0.4375 0.1875 -0.921875 0.1875q-0.4375 0 -0.765625 -0.109375q-0.3125 -0.125 -0.515625 -0.3125q-0.203125 -0.203125 -0.3125 -0.46875q-0.09375 -0.28125 -0.09375 -0.59375q0 -0.796875 0.578125 -1.234375q0.59375 -0.4375 1.734375 -0.4375l1.09375 0l0 -0.46875q0 -0.453125 -0.296875 -0.734375q-0.296875 -0.28125 -0.90625 -0.28125q-0.4375 0 -0.875 0.109375q-0.421875 0.09375 -0.890625 0.265625l0 -0.8125q0.171875 -0.0625 0.375 -0.125q0.21875 -0.0625 0.453125 -0.109375q0.234375 -0.046875 0.484375 -0.0625q0.265625 -0.03125 0.515625 -0.03125q0.484375 0 0.859375 0.109375q0.375 0.09375 0.640625 0.3125q0.26563263 0.203125 0.40625763 0.53125q0.140625 0.328125 0.140625 0.765625l0 3.59375l-0.8125076 0zm-0.09375 -2.375l-1.15625 0q-0.328125 0 -0.578125 0.0625q-0.25 0.0625 -0.40625 0.1875q-0.15625 0.125 -0.234375 0.3125q-0.0625 0.171875 -0.0625 0.390625q0 0.140625 0.046875 0.28125q0.046875 0.140625 0.140625 0.25q0.109375 0.109375 0.265625 0.171875q0.171875 0.0625 0.421875 0.0625q0.296875 0 0.703125 -0.1875q0.40625 -0.203125 0.859375 -0.609375l0 -0.921875zm7.061989 -0.328125q0 0.640625 -0.1875 1.15625q-0.171875 0.515625 -0.5 0.875q-0.328125 0.359375 -0.8125 0.546875q-0.46875 0.1875 -1.0625 0.1875q-0.453125 0 -0.9375 -0.078125q-0.484375 -0.09375 -0.96875 -0.296875l0 -7.046875l0.90625 0l0 2.03125l-0.03125 0.96875q0.390625 -0.53125 0.828125 -0.734375q0.4375 -0.21875 0.953125 -0.21875q0.453125 0 0.78125 0.1875q0.34375 0.1875 0.5625 0.53125q0.234375 0.328125 0.34375 0.8125q0.125 0.484375 0.125 1.078125zm-0.921875 0.03125q0 -0.40625 -0.0625 -0.75q-0.0625 -0.34375 -0.203125 -0.578125q-0.125 -0.25 -0.328125 -0.390625q-0.203125 -0.140625 -0.484375 -0.140625q-0.171875 0 -0.34375 0.0625q-0.171875 0.046875 -0.359375 0.1875q-0.1875 0.125 -0.40625 0.34375q-0.203125 0.203125 -0.453125 0.515625l0 2.53125q0.265625 0.09375 0.546875 0.15625q0.28125 0.0625 0.515625 0.0625q0.3125 0 0.59375 -0.09375q0.296875 -0.109375 0.5 -0.328125q0.21875 -0.234375 0.34375 -0.609375q0.140625 -0.390625 0.140625 -0.96875zm6.515106 2.671875l-0.8125 0l-0.03125 -0.84375q-0.234375 0.265625 -0.453125 0.453125q-0.203125 0.171875 -0.421875 0.28125q-0.203125 0.109375 -0.421875 0.15625q-0.203125 0.046875 -0.421875 0.046875q-0.8125 0 -1.234375 -0.46875q-0.40625 -0.484375 -0.40625 -1.4375l0 -3.40625l0.90625 0l0 3.328125q0 1.203125 0.90625 1.203125q0.171875 0 0.328125 -0.046875q0.15625 -0.046875 0.328125 -0.171875q0.171875 -0.125 0.375 -0.328125q0.203125 -0.203125 0.453125 -0.53125l0 -3.453125l0.90625 0l0 5.21875zm3.4369812 -6.609375l-1.546875 0l0 -0.75l2.46875 0l0 6.609375l1.546875 0l0 0.75l-4.1875 0l0 -0.75l1.71875 0l0 -5.859375zm7.436966 6.609375l-0.015625 -0.703125q-0.4375 0.421875 -0.875 0.609375q-0.4375 0.1875 -0.921875 0.1875q-0.4375 0 -0.765625 -0.109375q-0.3125 -0.125 -0.515625 -0.3125q-0.203125 -0.203125 -0.3125 -0.46875q-0.09373474 -0.28125 -0.09373474 -0.59375q0 -0.796875 0.57810974 -1.234375q0.59375 -0.4375 1.734375 -0.4375l1.09375 0l0 -0.46875q0 -0.453125 -0.296875 -0.734375q-0.296875 -0.28125 -0.90625 -0.28125q-0.4375 0 -0.875 0.109375q-0.421875 0.09375 -0.890625 0.265625l0 -0.8125q0.171875 -0.0625 0.375 -0.125q0.21875 -0.0625 0.453125 -0.109375q0.234375 -0.046875 0.484375 -0.0625q0.265625 -0.03125 0.515625 -0.03125q0.484375 0 0.859375 0.109375q0.375 0.09375 0.640625 0.3125q0.265625 0.203125 0.40625 0.53125q0.140625 0.328125 0.140625 0.765625l0 3.59375l-0.8125 0zm-0.09375 -2.375l-1.15625 0q-0.328125 0 -0.578125 0.0625q-0.25 0.0625 -0.40625 0.1875q-0.15625 0.125 -0.234375 0.3125q-0.0625 0.171875 -0.0625 0.390625q0 0.140625 0.046875 0.28125q0.046875 0.140625 0.140625 0.25q0.109375 0.109375 0.265625 0.171875q0.171875 0.0625 0.421875 0.0625q0.296875 0 0.703125 -0.1875q0.40625 -0.203125 0.859375 -0.609375l0 -0.921875zm2.8119812 -2.84375l0.828125 0l0.03125 0.953125q0.453125 -0.546875 0.90625 -0.796875q0.453125 -0.25 0.90625 -0.25q0.8125 0 1.234375 0.53125q0.421875 0.515625 0.390625 1.546875l-0.921875 0q0.015625 -0.6875 -0.203125 -0.984375q-0.21875 -0.3125 -0.625 -0.3125q-0.1875 0 -0.375 0.0625q-0.1875 0.0625 -0.375 0.203125q-0.1875 0.140625 -0.40625 0.375q-0.21875 0.21875 -0.46875 0.53125l0 3.359375l-0.921875 0l0 -5.21875zm10.296356 0l-1.78125 4.671875q-0.28125 0.703125 -0.578125 1.21875q-0.296875 0.515625 -0.640625 0.84375q-0.34375 0.34375 -0.765625 0.5q-0.40625 0.15625 -0.921875 0.15625q-0.140625 0 -0.25 -0.015625q-0.109375 0 -0.234375 -0.015625l0 -0.8125q0.109375 0.015625 0.234375 0.015625q0.140625 0.015625 0.296875 0.015625q0.25 0 0.46875 -0.078125q0.21875 -0.0625 0.40625 -0.234375q0.1875 -0.15625 0.359375 -0.421875q0.1875 -0.25 0.359375 -0.625l-2.09375 -5.21875l1.03125 0l1.3125 3.453125l0.265625 0.8125l0.3125 -0.84375l1.21875 -3.421875l1.0 0z" fill-rule="nonzero"/><path fill="#cfe2f3" d="m19.54593 89.585304l201.73228 0l0 36.194077l-7.238983 7.238991l-194.4933 0z" fill-rule="evenodd"/><path fill="#a5b4c2" d="m214.03923 133.01837l1.4477997 -5.791191l5.7911835 -1.4477997z" fill-rule="evenodd"/><path fill="#000000" fill-opacity="0.0" d="m214.03923 133.01837l1.4477997 -5.791191l5.7911835 -1.4477997l-7.238983 7.238991l-194.4933 0l0 -43.433067l201.73228 0l0 36.194077" fill-rule="evenodd"/><path stroke="#595959" stroke-width="1.0" stroke-linejoin="round" stroke-linecap="butt" d="m214.03923 133.01837l1.4477997 -5.791191l5.7911835 -1.4477997l-7.238983 7.238991l-194.4933 0l0 -43.433067l201.73228 0l0 36.194077" fill-rule="evenodd"/><path fill="#000000" d="m55.590176 105.35655q0 0.484375 -0.078125 0.9375q-0.078125 0.4375 -0.25 0.828125q-0.15625 0.375 -0.421875 0.703125q-0.265625 0.3125 -0.65625 0.53125q-0.390625 0.21875 -0.90625 0.34375q-0.5 0.125 -1.140625 0.125l-1.46875 0l0 -6.796875l1.765625 0q1.578125 0 2.359375 0.828125q0.796875 0.8125 0.796875 2.5zm-0.984375 0.0625q0 -0.71875 -0.140625 -1.21875q-0.125 -0.5 -0.40625 -0.8125q-0.265625 -0.3125 -0.6875 -0.4375q-0.421875 -0.140625 -0.96875 -0.140625l-0.796875 0l0 5.21875l0.6875 0q2.3125 0 2.3125 -2.609375zm6.530731 3.15625q-0.8125 0.328125 -1.703125 0.328125q-1.4375 0 -2.21875 -0.859375q-0.765625 -0.859375 -0.765625 -2.546875q0 -0.8125 0.203125 -1.46875q0.21875 -0.671875 0.609375 -1.125q0.40625 -0.46875 0.953125 -0.71875q0.5625 -0.25 1.265625 -0.25q0.46875 0 0.875 0.09375q0.40625 0.078125 0.78125 0.234375l0 0.921875q-0.359375 -0.203125 -0.765625 -0.3125q-0.390625 -0.109375 -0.859375 -0.109375q-0.484375 0 -0.875 0.1875q-0.375 0.171875 -0.65625 0.515625q-0.265625 0.34375 -0.40625 0.84375q-0.140625 0.484375 -0.140625 1.109375q0 1.3125 0.53125 1.984375q0.53125 0.671875 1.5625 0.671875q0.4375 0 0.84375 -0.09375q0.40625 -0.109375 0.765625 -0.28125l0 0.875zm6.4994774 0.25l-1.015625 0l-0.46875 -1.484375l-2.8281212 0l-0.484375 1.484375l-0.96875 0l2.2656212 -6.796875l1.265625 0l2.234375 6.796875zm-1.75 -2.3125l-1.15625 -3.640625l-1.1406212 3.640625l2.2968712 0zm7.202606 -3.703125l-2.015625 0l0 6.015625l-0.921875 0l0 -6.015625l-2.015625 0l0 -0.78125l4.953125 0l0 0.78125zm11.795837 2.546875q0 0.484375 -0.078125 0.9375q-0.078125 0.4375 -0.25 0.828125q-0.15625 0.375 -0.421875 0.703125q-0.265625 0.3125 -0.65625 0.53125q-0.390625 0.21875 -0.90625 0.34375q-0.5 0.125 -1.140625 0.125l-1.46875 0l0 -6.796875l1.765625 0q1.578125 0 2.359375 0.828125q0.796875 0.8125 0.796875 2.5zm-0.984375 0.0625q0 -0.71875 -0.140625 -1.21875q-0.125 -0.5 -0.40625 -0.8125q-0.265625 -0.3125 -0.6875 -0.4375q-0.421875 -0.140625 -0.96875 -0.140625l-0.796875 0l0 5.21875l0.6875 0q2.3125 0 2.3125 -2.609375zm6.608856 0.515625q0 0.203125 -0.015625 0.328125q0 0.125 -0.015625 0.234375l-3.65625 0q0 0.8125 0.4375 1.25q0.453125 0.421875 1.296875 0.421875q0.21875 0 0.453125 -0.015625q0.234375 -0.03125 0.4375 -0.0625q0.21875 -0.03125 0.40625 -0.0625q0.203125 -0.046875 0.375 -0.09375l0 0.75q-0.375 0.109375 -0.84375 0.171875q-0.46875 0.0625 -0.96875 0.0625q-0.65625 0 -1.140625 -0.171875q-0.484375 -0.1875 -0.796875 -0.53125q-0.3125 -0.359375 -0.46875 -0.859375q-0.140625 -0.5 -0.140625 -1.140625q0 -0.546875 0.15625 -1.03125q0.15625 -0.5 0.453125 -0.859375q0.3125 -0.375 0.75 -0.59375q0.453125 -0.21875 1.015625 -0.21875q0.546875 0 0.96875 0.171875q0.421875 0.171875 0.703125 0.484375q0.296875 0.3125 0.4375 0.765625q0.15625 0.453125 0.15625 1.0zm-0.953125 -0.125q0.015625 -0.34375 -0.0625 -0.625q-0.078125 -0.296875 -0.265625 -0.5q-0.171875 -0.21875 -0.4375 -0.328125q-0.25 -0.125 -0.59375 -0.125q-0.296875 0 -0.546875 0.125q-0.234375 0.109375 -0.421875 0.3125q-0.171875 0.203125 -0.28125 0.5q-0.109375 0.296875 -0.125 0.640625l2.734375 0zm7.030731 -3.5q-0.71875 -0.140625 -1.234375 -0.140625q-1.21875 0 -1.21875 1.28125l0 0.90625l2.296875 0l0 0.765625l-2.296875 0l0 3.703125l-0.921875 0l0 -3.703125l-1.671875 0l0 -0.765625l1.671875 0l0 -0.859375q0 -2.09375 2.171875 -2.09375q0.546875 0 1.203125 0.125l0 0.78125zm-5.46875 1.296875l0 0zm10.046356 5.21875l-0.015625 -0.703125q-0.4375 0.421875 -0.875 0.609375q-0.4375 0.1875 -0.921875 0.1875q-0.4375 0 -0.765625 -0.109375q-0.3125 -0.125 -0.515625 -0.3125q-0.203125 -0.203125 -0.3125 -0.46875q-0.09375 -0.28125 -0.09375 -0.59375q0 -0.796875 0.578125 -1.234375q0.59375 -0.4375 1.734375 -0.4375l1.09375 0l0 -0.46875q0 -0.453125 -0.296875 -0.734375q-0.296875 -0.28125 -0.90625 -0.28125q-0.4375 0 -0.875 0.109375q-0.421875 0.09375 -0.890625 0.265625l0 -0.8125q0.171875 -0.0625 0.375 -0.125q0.21875 -0.0625 0.453125 -0.109375q0.234375 -0.046875 0.484375 -0.0625q0.265625 -0.03125 0.515625 -0.03125q0.484375 0 0.859375 0.109375q0.375 0.09375 0.640625 0.3125q0.265625 0.203125 0.40625 0.53125q0.140625 0.328125 0.140625 0.765625l0 3.59375l-0.8125 0zm-0.09375 -2.375l-1.15625 0q-0.328125 0 -0.578125 0.0625q-0.25 0.0625 -0.40625 0.1875q-0.15625 0.125 -0.234375 0.3125q-0.0625 0.171875 -0.0625 0.390625q0 0.140625 0.046875 0.28125q0.046875 0.140625 0.140625 0.25q0.109375 0.109375 0.265625 0.171875q0.171875 0.0625 0.421875 0.0625q0.296875 0 0.703125 -0.1875q0.40625 -0.203125 0.859375 -0.609375l0 -0.921875zm6.796356 2.375l-0.8125 0l-0.03125 -0.84375q-0.234375 0.265625 -0.453125 0.453125q-0.203125 0.171875 -0.421875 0.28125q-0.203125 0.109375 -0.421875 0.15625q-0.203125 0.046875 -0.421875 0.046875q-0.8125 0 -1.234375 -0.46875q-0.40625 -0.484375 -0.40625 -1.4375l0 -3.40625l0.90625 0l0 3.328125q0 1.203125 0.90625 1.203125q0.171875 0 0.328125 -0.046875q0.15625 -0.046875 0.328125 -0.171875q0.171875 -0.125 0.375 -0.328125q0.203125 -0.203125 0.453125 -0.53125l0 -3.453125l0.90625 0l0 5.21875zm3.4369812 -6.609375l-1.546875 0l0 -0.75l2.46875 0l0 6.609375l1.546875 0l0 0.75l-4.1875 0l0 -0.75l1.71875 0l0 -5.859375zm8.296356 6.53125q-0.3125 0.078125 -0.640625 0.109375q-0.328125 0.046875 -0.671875 0.046875q-0.984375 0 -1.46875 -0.4375q-0.46875 -0.453125 -0.46875 -1.375l0 -2.734375l-1.46875 0l0 -0.75l1.46875 0l0 -1.4375l0.890625 -0.234375l0 1.671875l2.359375 0l0 0.75l-2.359375 0l0 2.65625q0 0.5625 0.296875 0.84375q0.3125 0.28125 0.890625 0.28125q0.25 0 0.546875 -0.03125q0.296875 -0.046875 0.625 -0.140625l0 0.78125zm12.483345 0.078125l-1.015625 0l-0.46875 -1.484375l-2.8281326 0l-0.484375 1.484375l-0.96875 0l2.2656326 -6.796875l1.265625 0l2.234375 6.796875zm-1.75 -2.3125l-1.15625 -3.640625l-1.140625 3.640625l2.296875 0zm7.093231 -0.390625q0 0.6875 -0.203125 1.21875q-0.1875 0.515625 -0.53125 0.859375q-0.34375 0.34375 -0.8125 0.515625q-0.46875 0.171875 -1.015625 0.171875q-0.25 0 -0.5 -0.03125q-0.234375 -0.015625 -0.5 -0.078125l0 2.1875l-0.90625 0l0 -7.359375l0.8125 0l0.0625 0.875q0.390625 -0.546875 0.828125 -0.75q0.4375 -0.21875 0.953125 -0.21875q0.453125 0 0.78125 0.1875q0.34375 0.1875 0.5625 0.53125q0.234375 0.328125 0.34375 0.8125q0.125 0.484375 0.125 1.078125zm-0.921875 0.03125q0 -0.40625 -0.0625 -0.75q-0.0625 -0.34375 -0.203125 -0.578125q-0.125 -0.25 -0.328125 -0.390625q-0.203125 -0.140625 -0.484375 -0.140625q-0.171875 0 -0.34375 0.0625q-0.171875 0.046875 -0.359375 0.1875q-0.1875 0.125 -0.40625 0.34375q-0.203125 0.203125 -0.453125 0.515625l0 2.53125q0.25 0.09375 0.53125 0.15625q0.28125 0.0625 0.53125 0.0625q0.734375 0 1.15625 -0.5q0.421875 -0.5 0.421875 -1.5zm6.780731 -0.03125q0 0.6875 -0.203125 1.21875q-0.1875 0.515625 -0.53125 0.859375q-0.34375 0.34375 -0.8125 0.515625q-0.46875 0.171875 -1.015625 0.171875q-0.25 0 -0.5 -0.03125q-0.234375 -0.015625 -0.5 -0.078125l0 2.1875l-0.90625 0l0 -7.359375l0.8125 0l0.0625 0.875q0.390625 -0.546875 0.828125 -0.75q0.4375 -0.21875 0.953125 -0.21875q0.453125 0 0.78125 0.1875q0.34375 0.1875 0.5625 0.53125q0.234375 0.328125 0.34375 0.8125q0.125 0.484375 0.125 1.078125zm-0.921875 0.03125q0 -0.40625 -0.0625 -0.75q-0.0625 -0.34375 -0.203125 -0.578125q-0.125 -0.25 -0.328125 -0.390625q-0.203125 -0.140625 -0.484375 -0.140625q-0.171875 0 -0.34375 0.0625q-0.171875 0.046875 -0.359375 0.1875q-0.1875 0.125 -0.40625 0.34375q-0.203125 0.203125 -0.453125 0.515625l0 2.53125q0.25 0.09375 0.53125 0.15625q0.28125 0.0625 0.53125 0.0625q0.734375 0 1.15625 -0.5q0.421875 -0.5 0.421875 -1.5zm4.093231 -3.9375l-1.546875 0l0 -0.75l2.46875 0l0 6.609375l1.546875 0l0 0.75l-4.1875 0l0 -0.75l1.71875 0l0 -5.859375zm5.858856 2.140625l-1.546875 0l0 -0.75l2.46875 0l0 4.46875l1.546875 0l0 0.75l-4.1875 0l0 -0.75l1.71875 0l0 -3.71875zm0.3125 -2.953125q0.15625 0 0.28125 0.0625q0.140625 0.046875 0.234375 0.15625q0.09375 0.09375 0.140625 0.21875q0.0625 0.125 0.0625 0.28125q0 0.140625 -0.0625 0.28125q-0.046875 0.125 -0.140625 0.234375q-0.09375 0.09375 -0.234375 0.15625q-0.125 0.046875 -0.28125 0.046875q-0.140625 0 -0.28125 -0.046875q-0.125 -0.0625 -0.21875 -0.15625q-0.09375 -0.109375 -0.15625 -0.234375q-0.046875 -0.140625 -0.046875 -0.28125q0 -0.15625 0.046875 -0.28125q0.0625 -0.125 0.15625 -0.21875q0.09375 -0.109375 0.21875 -0.15625q0.140625 -0.0625 0.28125 -0.0625zm7.827606 7.234375q-0.359375 0.125 -0.734375 0.1875q-0.359375 0.078125 -0.765625 0.078125q-1.234375 0 -1.90625 -0.671875q-0.65625 -0.671875 -0.65625 -1.96875q0 -0.609375 0.1875 -1.109375q0.1875 -0.515625 0.53125 -0.875q0.359375 -0.359375 0.84375 -0.546875q0.484375 -0.203125 1.0625 -0.203125q0.40625 0 0.75 0.0625q0.359375 0.046875 0.6875 0.1875l0 0.859375q-0.34375 -0.171875 -0.703125 -0.25q-0.34375 -0.09375 -0.71875 -0.09375q-0.34375 0 -0.65625 0.140625q-0.296875 0.125 -0.53125 0.375q-0.234375 0.25 -0.375 0.609375q-0.140625 0.359375 -0.140625 0.8125q0 0.953125 0.453125 1.421875q0.46875 0.46875 1.28125 0.46875q0.375 0 0.71875 -0.078125q0.34375 -0.09375 0.671875 -0.25l0 0.84375zm5.155731 0.1875l-0.015625 -0.703125q-0.4375 0.421875 -0.875 0.609375q-0.4375 0.1875 -0.921875 0.1875q-0.4375 0 -0.765625 -0.109375q-0.3125 -0.125 -0.515625 -0.3125q-0.203125 -0.203125 -0.3125 -0.46875q-0.09375 -0.28125 -0.09375 -0.59375q0 -0.796875 0.578125 -1.234375q0.59375 -0.4375 1.734375 -0.4375l1.09375 0l0 -0.46875q0 -0.453125 -0.296875 -0.734375q-0.296875 -0.28125 -0.90625 -0.28125q-0.4375 0 -0.875 0.109375q-0.421875 0.09375 -0.890625 0.265625l0 -0.8125q0.171875 -0.0625 0.375 -0.125q0.21875 -0.0625 0.453125 -0.109375q0.234375 -0.046875 0.484375 -0.0625q0.265625 -0.03125 0.515625 -0.03125q0.484375 0 0.859375 0.109375q0.375 0.09375 0.640625 0.3125q0.265625 0.203125 0.40625 0.53125q0.140625 0.328125 0.140625 0.765625l0 3.59375l-0.8125 0zm-0.09375 -2.375l-1.15625 0q-0.328125 0 -0.578125 0.0625q-0.25 0.0625 -0.40625 0.1875q-0.15625 0.125 -0.234375 0.3125q-0.0625 0.171875 -0.0625 0.390625q0 0.140625 0.046875 0.28125q0.046875 0.140625 0.140625 0.25q0.109375 0.109375 0.265625 0.171875q0.171875 0.0625 0.421875 0.0625q0.296875 0 0.703125 -0.1875q0.40625 -0.203125 0.859375 -0.609375l0 -0.921875zm6.811981 2.296875q-0.3125 0.078125 -0.640625 0.109375q-0.328125 0.046875 -0.671875 0.046875q-0.984375 0 -1.46875 -0.4375q-0.46875 -0.453125 -0.46875 -1.375l0 -2.734375l-1.46875 0l0 -0.75l1.46875 0l0 -1.4375l0.890625 -0.234375l0 1.671875l2.359375 0l0 0.75l-2.359375 0l0 2.65625q0 0.5625 0.296875 0.84375q0.3125 0.28125 0.890625 0.28125q0.25 0 0.546875 -0.03125q0.296875 -0.046875 0.625 -0.140625l0 0.78125zm3.4213562 -4.390625l-1.546875 0l0 -0.75l2.46875 0l0 4.46875l1.546875 0l0 0.75l-4.1875 0l0 -0.75l1.71875 0l0 -3.71875zm0.3125 -2.953125q0.15625 0 0.28125 0.0625q0.140625 0.046875 0.234375 0.15625q0.09375 0.09375 0.140625 0.21875q0.0625 0.125 0.0625 0.28125q0 0.140625 -0.0625 0.28125q-0.046875 0.125 -0.140625 0.234375q-0.09375 0.09375 -0.234375 0.15625q-0.125 0.046875 -0.28125 0.046875q-0.140625 0 -0.28125 -0.046875q-0.125 -0.0625 -0.21875 -0.15625q-0.09375 -0.109375 -0.15625 -0.234375q-0.046875 -0.140625 -0.046875 -0.28125q0 -0.15625 0.046875 -0.28125q0.0625 -0.125 0.15625 -0.21875q0.09375 -0.109375 0.21875 -0.15625q0.140625 -0.0625 0.28125 -0.0625zm8.311981 4.765625q0 0.609375 -0.171875 1.125q-0.171875 0.5 -0.5 0.859375q-0.3125 0.359375 -0.78125 0.5625q-0.453125 0.203125 -1.046875 0.203125q-0.5625 0 -1.015625 -0.171875q-0.4375 -0.171875 -0.75 -0.515625q-0.296875 -0.34375 -0.46875 -0.84375q-0.15625 -0.5 -0.15625 -1.140625q0 -0.609375 0.171875 -1.109375q0.171875 -0.5 0.484375 -0.859375q0.328125 -0.375 0.78125 -0.5625q0.46875 -0.203125 1.0625 -0.203125q0.5625 0 1.0 0.171875q0.453125 0.171875 0.75 0.515625q0.3125 0.328125 0.46875 0.828125q0.171875 0.5 0.171875 1.140625zm-0.921875 0.046875q0 -0.484375 -0.109375 -0.84375q-0.109375 -0.359375 -0.3125 -0.59375q-0.1875 -0.25 -0.46875 -0.375q-0.28125 -0.125 -0.640625 -0.125q-0.390625 0 -0.6875 0.15625q-0.28125 0.15625 -0.46875 0.421875q-0.1875 0.265625 -0.28125 0.625q-0.078125 0.34375 -0.078125 0.734375q0 0.484375 0.109375 0.84375q0.109375 0.359375 0.296875 0.609375q0.203125 0.234375 0.484375 0.359375q0.28125 0.125 0.625 0.125q0.40625 0 0.6875 -0.15625q0.296875 -0.15625 0.484375 -0.421875q0.1875 -0.265625 0.265625 -0.609375q0.09375 -0.359375 0.09375 -0.75zm2.2338562 -2.609375l0.8125 0l0.03125 0.84375q0.234375 -0.28125 0.4375 -0.453125q0.21875 -0.1875 0.421875 -0.296875q0.203125 -0.109375 0.421875 -0.140625q0.21875 -0.046875 0.4375 -0.046875q0.8125 0 1.21875 0.484375q0.421875 0.46875 0.421875 1.421875l0 3.40625l-0.90625 0l0 -3.328125q0 -0.625 -0.234375 -0.90625q-0.21875 -0.296875 -0.671875 -0.296875q-0.171875 0 -0.328125 0.046875q-0.15625 0.046875 -0.328125 0.171875q-0.171875 0.125 -0.375 0.328125q-0.203125 0.203125 -0.453125 0.515625l0 3.46875l-0.90625 0l0 -5.21875z" fill-rule="nonzero"/><path fill="#000000" d="m72.963615 117.10655q0 0.421875 -0.15625 0.828125q-0.15625 0.40625 -0.484375 0.734375q-0.328125 0.3125 -0.84375 0.515625q-0.5 0.203125 -1.203125 0.203125l-0.84375 0l0 2.4375l-0.921875 0l0 -6.796875l1.90625 0q0.5 0 0.96875 0.109375q0.46875 0.109375 0.8125 0.359375q0.359375 0.25 0.5625 0.65625q0.203125 0.390625 0.203125 0.953125zm-0.953125 0.046875q0 -0.65625 -0.4375 -1.0q-0.421875 -0.359375 -1.203125 -0.359375l-0.9375 0l0 2.796875l0.859375 0q0.828125 0 1.265625 -0.359375q0.453125 -0.359375 0.453125 -1.078125zm2.5776062 -0.546875l0.828125 0l0.03125 0.953125q0.453125 -0.546875 0.90625 -0.796875q0.453125 -0.25 0.90625 -0.25q0.8125 0 1.234375 0.53125q0.421875 0.515625 0.390625 1.546875l-0.921875 0q0.015625 -0.6875 -0.203125 -0.984375q-0.21875 -0.3125 -0.625 -0.3125q-0.1875 0 -0.375 0.0625q-0.1875 0.0625 -0.375 0.203125q-0.1875 0.140625 -0.40625 0.375q-0.21875 0.21875 -0.46875 0.53125l0 3.359375l-0.921875 0l0 -5.21875zm10.186981 2.5625q0 0.609375 -0.171875 1.125q-0.171875 0.5 -0.5 0.859375q-0.3125 0.359375 -0.78125 0.5625q-0.453125 0.203125 -1.046875 0.203125q-0.5625 0 -1.015625 -0.171875q-0.4375 -0.171875 -0.75 -0.515625q-0.296875 -0.34375 -0.46875 -0.84375q-0.15625 -0.5 -0.15625 -1.140625q0 -0.609375 0.171875 -1.109375q0.171875 -0.5 0.484375 -0.859375q0.328125 -0.375 0.78125 -0.5625q0.46875 -0.203125 1.0625 -0.203125q0.5625 0 1.0 0.171875q0.453125 0.171875 0.75 0.515625q0.3125 0.328125 0.46875 0.828125q0.171875 0.5 0.171875 1.140625zm-0.921875 0.046875q0 -0.484375 -0.109375 -0.84375q-0.109375 -0.359375 -0.3125 -0.59375q-0.1875 -0.25 -0.46875 -0.375q-0.28125 -0.125 -0.640625 -0.125q-0.390625 0 -0.6875 0.15625q-0.28125 0.15625 -0.46875 0.421875q-0.1875 0.265625 -0.28125 0.625q-0.078125 0.34375 -0.078125 0.734375q0 0.484375 0.109375 0.84375q0.109375 0.359375 0.296875 0.609375q0.203125 0.234375 0.484375 0.359375q0.28125 0.125 0.625 0.125q0.40625 0 0.6875 -0.15625q0.296875 -0.15625 0.484375 -0.421875q0.1875 -0.265625 0.265625 -0.609375q0.09375 -0.359375 0.09375 -0.75zm6.874481 -3.90625q-0.71875 -0.140625 -1.234375 -0.140625q-1.21875 0 -1.21875 1.28125l0 0.90625l2.296875 0l0 0.765625l-2.296875 0l0 3.703125l-0.921875 0l0 -3.703125l-1.671875 0l0 -0.765625l1.671875 0l0 -0.859375q0 -2.09375 2.171875 -2.09375q0.546875 0 1.203125 0.125l0 0.78125zm-5.46875 1.296875l0 0zm8.468231 0.75l-1.546875 0l0 -0.75l2.46875 0l0 4.46875l1.546875 0l0 0.75l-4.1875 0l0 -0.75l1.71875 0l0 -3.71875zm0.3125 -2.953125q0.15625 0 0.28125 0.0625q0.140625 0.046875 0.234375 0.15625q0.09375 0.09375 0.140625 0.21875q0.0625 0.125 0.0625 0.28125q0 0.140625 -0.0625 0.28125q-0.046875 0.125 -0.140625 0.234375q-0.09375 0.09375 -0.234375 0.15625q-0.125 0.046875 -0.28125 0.046875q-0.140625 0 -0.28125 -0.046875q-0.125 -0.0625 -0.21875 -0.15625q-0.09375 -0.109375 -0.15625 -0.234375q-0.046875 -0.140625 -0.046875 -0.28125q0 -0.15625 0.046875 -0.28125q0.0625 -0.125 0.15625 -0.21875q0.09375 -0.109375 0.21875 -0.15625q0.140625 -0.0625 0.28125 -0.0625zm5.546356 0.8125l-1.546875 0l0 -0.75l2.46875 0l0 6.609375l1.546875 0l0 0.75l-4.1875 0l0 -0.75l1.71875 0l0 -5.859375zm8.499481 3.71875q0 0.203125 -0.015625 0.328125q0 0.125 -0.015625 0.234375l-3.65625 0q0 0.8125 0.4375 1.25q0.453125 0.421875 1.296875 0.421875q0.21875 0 0.453125 -0.015625q0.234375 -0.03125 0.4375 -0.0625q0.21875 -0.03125 0.40625 -0.0625q0.203125 -0.046875 0.375 -0.09375l0 0.75q-0.375 0.109375 -0.84375 0.171875q-0.46875 0.0625 -0.96875 0.0625q-0.65625 0 -1.140625 -0.171875q-0.484375 -0.1875 -0.796875 -0.53125q-0.3125 -0.359375 -0.46875 -0.859375q-0.140625 -0.5 -0.140625 -1.140625q0 -0.546875 0.15625 -1.03125q0.15625 -0.5 0.453125 -0.859375q0.3125 -0.375 0.75 -0.59375q0.453125 -0.21875 1.015625 -0.21875q0.546875 0 0.96875 0.171875q0.421875 0.171875 0.703125 0.484375q0.296875 0.3125 0.4375 0.765625q0.15625 0.453125 0.15625 1.0zm-0.953125 -0.125q0.015625 -0.34375 -0.0625 -0.625q-0.078125 -0.296875 -0.265625 -0.5q-0.171875 -0.21875 -0.4375 -0.328125q-0.25 -0.125 -0.59375 -0.125q-0.296875 0 -0.546875 0.125q-0.234375 0.109375 -0.421875 0.3125q-0.171875 0.203125 -0.28125 0.5q-0.109375 0.296875 -0.125 0.640625l2.734375 0zm11.373962 5.203125q-2.390625 -2.21875 -2.390625 -4.90625q0 -0.640625 0.125 -1.265625q0.125 -0.625 0.40625 -1.25q0.296875 -0.640625 0.75 -1.265625q0.46875 -0.625 1.140625 -1.25l0.515625 0.53125q-2.015625 2.0 -2.015625 4.421875q0 1.203125 0.5 2.328125q0.515625 1.109375 1.515625 2.09375l-0.546875 0.5625zm7.390106 -5.65625q0 0.484375 -0.078125 0.9375q-0.078125 0.4375 -0.25 0.828125q-0.15625 0.375 -0.421875 0.703125q-0.265625 0.3125 -0.65625 0.53125q-0.390625 0.21875 -0.90625 0.34375q-0.5 0.125 -1.140625 0.125l-1.46875 0l0 -6.796875l1.765625 0q1.578125 0 2.359375 0.828125q0.796875 0.8125 0.796875 2.5zm-0.984375 0.0625q0 -0.71875 -0.140625 -1.21875q-0.125 -0.5 -0.40625 -0.8125q-0.265625 -0.3125 -0.6875 -0.4375q-0.421875 -0.140625 -0.96875 -0.140625l-0.796875 0l0 5.21875l0.6875 0q2.3125 0 2.3125 -2.609375zm6.530739 3.15625q-0.8125 0.328125 -1.703125 0.328125q-1.4375 0 -2.2187576 -0.859375q-0.765625 -0.859375 -0.765625 -2.546875q0 -0.8125 0.203125 -1.46875q0.21875 -0.671875 0.609375 -1.125q0.40625 -0.46875 0.9531326 -0.71875q0.5625 -0.25 1.265625 -0.25q0.46875 0 0.875 0.09375q0.40625 0.078125 0.78125 0.234375l0 0.921875q-0.359375 -0.203125 -0.765625 -0.3125q-0.390625 -0.109375 -0.859375 -0.109375q-0.484375 0 -0.875 0.1875q-0.375 0.171875 -0.65625 0.515625q-0.265625 0.34375 -0.40625763 0.84375q-0.140625 0.484375 -0.140625 1.109375q0 1.3125 0.5312576 1.984375q0.53125 0.671875 1.5625 0.671875q0.4375 0 0.84375 -0.09375q0.40625 -0.109375 0.765625 -0.28125l0 0.875zm6.499481 0.25l-1.015625 0l-0.46875 -1.484375l-2.828125 0l-0.484375 1.484375l-0.96875 0l2.265625 -6.796875l1.265625 0l2.234375 6.796875zm-1.75 -2.3125l-1.15625 -3.640625l-1.140625 3.640625l2.296875 0zm7.202606 -3.703125l-2.015625 0l0 6.015625l-0.921875 0l0 -6.015625l-2.015625 0l0 -0.78125l4.953125 0l0 0.78125zm4.936981 3.609375l-3.109375 0l0 -0.859375l3.109375 0l0 0.859375zm6.858856 -1.0625q0 0.484375 -0.078125 0.9375q-0.078125 0.4375 -0.25 0.828125q-0.15625 0.375 -0.421875 0.703125q-0.265625 0.3125 -0.65625 0.53125q-0.390625 0.21875 -0.90625 0.34375q-0.5 0.125 -1.140625 0.125l-1.46875 0l0 -6.796875l1.765625 0q1.578125 0 2.359375 0.828125q0.796875 0.8125 0.796875 2.5zm-0.984375 0.0625q0 -0.71875 -0.140625 -1.21875q-0.125 -0.5 -0.40625 -0.8125q-0.265625 -0.3125 -0.6875 -0.4375q-0.421875 -0.140625 -0.96875 -0.140625l-0.796875 0l0 5.21875l0.6875 0q2.3125 0 2.3125 -2.609375zm7.171356 3.40625l-1.015625 0l-0.46875 -1.484375l-2.828125 0l-0.484375 1.484375l-0.96875 0l2.265625 -6.796875l1.265625 0l2.234375 6.796875zm-1.75 -2.3125l-1.15625 -3.640625l-1.140625 3.640625l2.296875 0zm7.077606 -2.40625q0 0.421875 -0.15625 0.828125q-0.15625 0.40625 -0.484375 0.734375q-0.328125 0.3125 -0.84375 0.515625q-0.5 0.203125 -1.203125 0.203125l-0.84375 0l0 2.4375l-0.921875 0l0 -6.796875l1.90625 0q0.5 0 0.96875 0.109375q0.46875 0.109375 0.8125 0.359375q0.359375 0.25 0.5625 0.65625q0.203125 0.390625 0.203125 0.953125zm-0.953125 0.046875q0 -0.65625 -0.4375 -1.0q-0.421875 -0.359375 -1.203125 -0.359375l-0.9375 0l0 2.796875l0.859375 0q0.828125 0 1.265625 -0.359375q0.453125 -0.359375 0.453125 -1.078125zm3.4369812 -3.078125q2.390625 2.21875 2.390625 4.953125q0 0.546875 -0.125 1.15625q-0.109375 0.609375 -0.390625 1.25q-0.265625 0.625 -0.734375 1.265625q-0.453125 0.65625 -1.171875 1.3125l-0.515625 -0.53125q1.015625 -1.015625 1.5 -2.109375q0.5 -1.09375 0.5 -2.28125q0 -2.484375 -2.0 -4.453125l0.546875 -0.5625z" fill-rule="nonzero"/><path fill="#000000" fill-opacity="0.0" d="m120.41207 69.3727l0 20.220474" fill-rule="evenodd"/><path stroke="#595959" stroke-width="1.0" stroke-linejoin="round" stroke-linecap="butt" d="m120.41207 69.3727l0 14.220474" fill-rule="evenodd"/><path fill="#595959" stroke="#595959" stroke-width="1.0" stroke-linecap="butt" d="m118.76034 83.59318l1.6517334 4.5380936l1.6517334 -4.5380936z" fill-rule="evenodd"/></g></svg>